<mxfile host="app.diagrams.net" modified="2024-09-25T16:00:50.152Z" agent="Mozilla/5.0 (Macintosh; Intel Mac OS X 10_15_7) AppleWebKit/537.36 (KHTML, like Gecko) Chrome/103.0.0.0 Safari/537.36" etag="NWjWjwWyZq4GHH4eyaTF" version="24.5.4" type="github">
  <diagram name="第 1 页" id="eW5NcMKa821Wg530ICqS">
    <mxGraphModel dx="545" dy="225" grid="0" gridSize="10" guides="1" tooltips="1" connect="1" arrows="1" fold="1" page="1" pageScale="1" pageWidth="827" pageHeight="1169" math="0" shadow="0">
      <root>
        <mxCell id="0" />
        <mxCell id="1" parent="0" />
        <mxCell id="pU6KLAqEwOz_TJWLvvWT-9" style="edgeStyle=orthogonalEdgeStyle;rounded=0;orthogonalLoop=1;jettySize=auto;html=1;exitX=1;exitY=0.5;exitDx=0;exitDy=0;entryX=0;entryY=0.5;entryDx=0;entryDy=0;" edge="1" parent="1" source="pU6KLAqEwOz_TJWLvvWT-8" target="pU6KLAqEwOz_TJWLvvWT-5">
          <mxGeometry relative="1" as="geometry" />
        </mxCell>
        <mxCell id="pU6KLAqEwOz_TJWLvvWT-12" style="edgeStyle=orthogonalEdgeStyle;rounded=0;orthogonalLoop=1;jettySize=auto;html=1;exitX=0.25;exitY=1;exitDx=0;exitDy=0;entryX=0.5;entryY=0;entryDx=0;entryDy=0;" edge="1" parent="1" source="pU6KLAqEwOz_TJWLvvWT-8" target="pU6KLAqEwOz_TJWLvvWT-6">
          <mxGeometry relative="1" as="geometry" />
        </mxCell>
        <mxCell id="pU6KLAqEwOz_TJWLvvWT-13" style="edgeStyle=orthogonalEdgeStyle;rounded=0;orthogonalLoop=1;jettySize=auto;html=1;exitX=0.75;exitY=1;exitDx=0;exitDy=0;entryX=0.5;entryY=0;entryDx=0;entryDy=0;" edge="1" parent="1" source="pU6KLAqEwOz_TJWLvvWT-8" target="pU6KLAqEwOz_TJWLvvWT-7">
          <mxGeometry relative="1" as="geometry" />
        </mxCell>
        <mxCell id="pU6KLAqEwOz_TJWLvvWT-8" value="" style="rounded=0;whiteSpace=wrap;html=1;dashed=1;" vertex="1" parent="1">
          <mxGeometry x="160" y="120" width="420" height="130" as="geometry" />
        </mxCell>
        <mxCell id="pU6KLAqEwOz_TJWLvvWT-24" style="edgeStyle=orthogonalEdgeStyle;rounded=0;orthogonalLoop=1;jettySize=auto;html=1;exitX=0.5;exitY=1;exitDx=0;exitDy=0;entryX=0.5;entryY=0;entryDx=0;entryDy=0;entryPerimeter=0;" edge="1" parent="1" source="pU6KLAqEwOz_TJWLvvWT-1" target="pU6KLAqEwOz_TJWLvvWT-25">
          <mxGeometry relative="1" as="geometry">
            <mxPoint x="475" y="560" as="targetPoint" />
          </mxGeometry>
        </mxCell>
        <mxCell id="pU6KLAqEwOz_TJWLvvWT-1" value="sia" style="rounded=1;whiteSpace=wrap;html=1;fillColor=#e1d5e7;strokeColor=#9673a6;" vertex="1" parent="1">
          <mxGeometry x="415" y="460" width="120" height="60" as="geometry" />
        </mxCell>
        <mxCell id="pU6KLAqEwOz_TJWLvvWT-10" style="edgeStyle=orthogonalEdgeStyle;rounded=0;orthogonalLoop=1;jettySize=auto;html=1;exitX=0.5;exitY=1;exitDx=0;exitDy=0;entryX=0.5;entryY=0;entryDx=0;entryDy=0;" edge="1" parent="1" source="pU6KLAqEwOz_TJWLvvWT-2" target="pU6KLAqEwOz_TJWLvvWT-8">
          <mxGeometry relative="1" as="geometry" />
        </mxCell>
        <mxCell id="pU6KLAqEwOz_TJWLvvWT-2" value="BFE" style="rounded=1;whiteSpace=wrap;html=1;fillColor=#d5e8d4;strokeColor=#82b366;" vertex="1" parent="1">
          <mxGeometry x="310" y="30" width="120" height="60" as="geometry" />
        </mxCell>
        <mxCell id="pU6KLAqEwOz_TJWLvvWT-3" value="router" style="rounded=1;whiteSpace=wrap;html=1;fillColor=#ffe6cc;strokeColor=#d79b00;" vertex="1" parent="1">
          <mxGeometry x="200" y="150" width="120" height="60" as="geometry" />
        </mxCell>
        <mxCell id="pU6KLAqEwOz_TJWLvvWT-4" value="router-nocore" style="rounded=1;whiteSpace=wrap;html=1;fillColor=#ffe6cc;strokeColor=#d79b00;" vertex="1" parent="1">
          <mxGeometry x="420" y="150" width="120" height="60" as="geometry" />
        </mxCell>
        <mxCell id="pU6KLAqEwOz_TJWLvvWT-20" style="edgeStyle=orthogonalEdgeStyle;rounded=0;orthogonalLoop=1;jettySize=auto;html=1;exitX=0.5;exitY=1;exitDx=0;exitDy=0;entryX=0.5;entryY=0;entryDx=0;entryDy=0;" edge="1" parent="1" source="pU6KLAqEwOz_TJWLvvWT-5" target="pU6KLAqEwOz_TJWLvvWT-11">
          <mxGeometry relative="1" as="geometry" />
        </mxCell>
        <mxCell id="pU6KLAqEwOz_TJWLvvWT-5" value="rpc" style="rounded=1;whiteSpace=wrap;html=1;fillColor=#fff2cc;strokeColor=#d6b656;" vertex="1" parent="1">
          <mxGeometry x="670" y="155" width="120" height="60" as="geometry" />
        </mxCell>
        <mxCell id="pU6KLAqEwOz_TJWLvvWT-18" style="edgeStyle=orthogonalEdgeStyle;rounded=0;orthogonalLoop=1;jettySize=auto;html=1;exitX=0.5;exitY=1;exitDx=0;exitDy=0;" edge="1" parent="1" source="pU6KLAqEwOz_TJWLvvWT-6">
          <mxGeometry relative="1" as="geometry">
            <mxPoint x="460" y="460" as="targetPoint" />
          </mxGeometry>
        </mxCell>
        <mxCell id="pU6KLAqEwOz_TJWLvvWT-21" value="日志结果" style="edgeLabel;html=1;align=center;verticalAlign=middle;resizable=0;points=[];" vertex="1" connectable="0" parent="pU6KLAqEwOz_TJWLvvWT-18">
          <mxGeometry x="0.1839" relative="1" as="geometry">
            <mxPoint as="offset" />
          </mxGeometry>
        </mxCell>
        <mxCell id="pU6KLAqEwOz_TJWLvvWT-6" value="access.log" style="shape=process;whiteSpace=wrap;html=1;backgroundOutline=1;" vertex="1" parent="1">
          <mxGeometry x="205" y="310" width="120" height="60" as="geometry" />
        </mxCell>
        <mxCell id="pU6KLAqEwOz_TJWLvvWT-17" style="edgeStyle=orthogonalEdgeStyle;rounded=0;orthogonalLoop=1;jettySize=auto;html=1;exitX=0.5;exitY=1;exitDx=0;exitDy=0;entryX=0.5;entryY=0;entryDx=0;entryDy=0;" edge="1" parent="1" source="pU6KLAqEwOz_TJWLvvWT-7" target="pU6KLAqEwOz_TJWLvvWT-1">
          <mxGeometry relative="1" as="geometry" />
        </mxCell>
        <mxCell id="pU6KLAqEwOz_TJWLvvWT-22" value="白名单接口日志" style="edgeLabel;html=1;align=center;verticalAlign=middle;resizable=0;points=[];" vertex="1" connectable="0" parent="pU6KLAqEwOz_TJWLvvWT-17">
          <mxGeometry x="-0.1333" y="2" relative="1" as="geometry">
            <mxPoint as="offset" />
          </mxGeometry>
        </mxCell>
        <mxCell id="pU6KLAqEwOz_TJWLvvWT-7" value="error.log" style="shape=process;whiteSpace=wrap;html=1;backgroundOutline=1;" vertex="1" parent="1">
          <mxGeometry x="415" y="310" width="120" height="60" as="geometry" />
        </mxCell>
        <mxCell id="pU6KLAqEwOz_TJWLvvWT-19" style="edgeStyle=orthogonalEdgeStyle;rounded=0;orthogonalLoop=1;jettySize=auto;html=1;exitX=0.5;exitY=1;exitDx=0;exitDy=0;entryX=1;entryY=0.5;entryDx=0;entryDy=0;" edge="1" parent="1" source="pU6KLAqEwOz_TJWLvvWT-11" target="pU6KLAqEwOz_TJWLvvWT-1">
          <mxGeometry relative="1" as="geometry" />
        </mxCell>
        <mxCell id="pU6KLAqEwOz_TJWLvvWT-23" value="日志结果" style="edgeLabel;html=1;align=center;verticalAlign=middle;resizable=0;points=[];" vertex="1" connectable="0" parent="pU6KLAqEwOz_TJWLvvWT-19">
          <mxGeometry x="0.054" relative="1" as="geometry">
            <mxPoint as="offset" />
          </mxGeometry>
        </mxCell>
        <mxCell id="pU6KLAqEwOz_TJWLvvWT-11" value="access.log" style="shape=process;whiteSpace=wrap;html=1;backgroundOutline=1;" vertex="1" parent="1">
          <mxGeometry x="670" y="310" width="120" height="60" as="geometry" />
        </mxCell>
        <mxCell id="pU6KLAqEwOz_TJWLvvWT-15" style="edgeStyle=orthogonalEdgeStyle;rounded=0;orthogonalLoop=1;jettySize=auto;html=1;exitX=1;exitY=0.5;exitDx=0;exitDy=0;entryX=0;entryY=0.5;entryDx=0;entryDy=0;" edge="1" parent="1" source="pU6KLAqEwOz_TJWLvvWT-14" target="pU6KLAqEwOz_TJWLvvWT-1">
          <mxGeometry relative="1" as="geometry" />
        </mxCell>
        <mxCell id="pU6KLAqEwOz_TJWLvvWT-16" value="解析策略" style="edgeLabel;html=1;align=center;verticalAlign=middle;resizable=0;points=[];" vertex="1" connectable="0" parent="pU6KLAqEwOz_TJWLvvWT-15">
          <mxGeometry x="-0.0118" y="3" relative="1" as="geometry">
            <mxPoint as="offset" />
          </mxGeometry>
        </mxCell>
        <mxCell id="pU6KLAqEwOz_TJWLvvWT-14" value="svn" style="rounded=1;whiteSpace=wrap;html=1;fillColor=#dae8fc;strokeColor=#6c8ebf;" vertex="1" parent="1">
          <mxGeometry x="110" y="460" width="120" height="60" as="geometry" />
        </mxCell>
        <mxCell id="pU6KLAqEwOz_TJWLvvWT-27" style="edgeStyle=orthogonalEdgeStyle;rounded=0;orthogonalLoop=1;jettySize=auto;html=1;exitX=0;exitY=0.5;exitDx=0;exitDy=0;exitPerimeter=0;entryX=1;entryY=0.5;entryDx=0;entryDy=0;" edge="1" parent="1" source="pU6KLAqEwOz_TJWLvvWT-25" target="pU6KLAqEwOz_TJWLvvWT-26">
          <mxGeometry relative="1" as="geometry" />
        </mxCell>
        <mxCell id="pU6KLAqEwOz_TJWLvvWT-28" value="接口及PV数据" style="edgeLabel;html=1;align=center;verticalAlign=middle;resizable=0;points=[];" vertex="1" connectable="0" parent="pU6KLAqEwOz_TJWLvvWT-27">
          <mxGeometry x="-0.1814" y="1" relative="1" as="geometry">
            <mxPoint as="offset" />
          </mxGeometry>
        </mxCell>
        <mxCell id="pU6KLAqEwOz_TJWLvvWT-25" value="" style="shape=cylinder3;whiteSpace=wrap;html=1;boundedLbl=1;backgroundOutline=1;size=15;" vertex="1" parent="1">
          <mxGeometry x="445" y="564" width="60" height="80" as="geometry" />
        </mxCell>
        <mxCell id="pU6KLAqEwOz_TJWLvvWT-26" value="ems" style="rounded=1;whiteSpace=wrap;html=1;fillColor=#dae8fc;strokeColor=#6c8ebf;" vertex="1" parent="1">
          <mxGeometry x="110" y="574" width="120" height="60" as="geometry" />
        </mxCell>
      </root>
    </mxGraphModel>
  </diagram>
</mxfile>
